<?xml version="1.0" encoding="UTF-8"?>
<svg xmlns="http://www.w3.org/2000/svg" viewBox="0 0 512 512">
  <defs>
    <style>
      .cls-1 {
        fill: #fff;
      }
    </style>
  </defs>
  <g id="Capa_2">
    <rect x="0" y="0" width="512" height="512" rx="114.06" ry="114.06"/>
  </g>
  <g id="Capa_1">
    <g>
      <path class="cls-1" d="M156.17,163.92h13.63c1.74,0,2.62.88,2.62,2.62v178.17c0,1.75-.88,2.62-2.62,2.62h-13.36c-1.75,0-2.62-.87-2.62-2.62v-142.54c0-.52-.18-.87-.52-1.05-.35-.17-.61,0-.79.52l-34.85,60.53c-.88,1.22-1.92,1.83-3.14,1.83h-2.88c-1.22,0-2.27-.61-3.14-1.83l-35.11-60.26c-.18-.52-.44-.7-.79-.52-.35.18-.52.52-.52,1.05v142.28c0,1.75-.88,2.62-2.62,2.62h-13.36c-1.75,0-2.62-.87-2.62-2.62v-178.17c0-1.74.87-2.62,2.62-2.62h13.63c1.22,0,2.27.61,3.14,1.83l39.56,67.34c.17.18.43.26.79.26s.61-.09.79-.26l39.04-67.34c.87-1.22,1.92-1.83,3.14-1.83Z"/>
      <path class="cls-1" d="M215.65,344.71v-178.17c0-1.74.87-2.62,2.62-2.62h13.36c1.74,0,2.62.88,2.62,2.62v163.5c0,.7.35,1.05,1.05,1.05h76.25c1.74,0,2.62.88,2.62,2.62v11.01c0,1.75-.88,2.62-2.62,2.62h-93.28c-1.75,0-2.62-.87-2.62-2.62Z"/>
      <path class="cls-1" d="M439.15,344.98l-8.65-32.75c-.18-.52-.61-.79-1.31-.79h-62.62c-.7,0-1.14.26-1.31.79l-8.65,32.75c-.35,1.57-1.31,2.36-2.88,2.36h-13.63c-.88,0-1.53-.26-1.97-.79-.44-.52-.57-1.22-.39-2.1l49-178.17c.35-1.57,1.31-2.36,2.88-2.36h16.77c1.57,0,2.53.79,2.88,2.36l49,178.17.26.79c0,1.4-.88,2.1-2.62,2.1h-13.89c-1.57,0-2.53-.79-2.88-2.36ZM369.85,295.85c.26.26.57.39.92.39h54.24c.35,0,.65-.13.92-.39s.3-.48.13-.66l-27.77-105.33c-.18-.35-.35-.52-.52-.52s-.35.18-.52.52l-27.51,105.33c-.18.18-.13.39.13.66Z"/>
    </g>
  </g>
</svg>